<svg fill="#000000" xmlns="http://www.w3.org/2000/svg"  viewBox="0 0 16 16" width="16px" height="16px"><path d="M 10.5 1 C 8.0272727 1 6 3.0272727 6 5.5 C 6 6.5541459 6.4227936 7.4861815 7.0371094 8.2558594 L 2.046875 13.246094 L 2.7539062 13.953125 L 7.7441406 8.9628906 C 8.5138185 9.5772064 9.4458541 10 10.5 10 C 12.972727 10 15 7.9727273 15 5.5 C 15 3.0272727 12.972727 1 10.5 1 z M 10.5 2 C 12.427273 2 14 3.5727273 14 5.5 C 14 7.4272727 12.427273 9 10.5 9 C 8.5727273 9 7 7.4272727 7 5.5 C 7 3.5727273 8.5727273 2 10.5 2 z"/></svg>